{"title":"Funny Pics Compilation Part 7","uid":15981251,"size":193217500,"categoryP":"video","categoryS":"other","magnet":"?xt=urn:btih:c4a1fd273c1bab83c1c4d84f0ff6475a03fb3bfc&amp;dn=Funny+Pics+Compilation+Part+7&amp;tr=udp%3A%2F%2Ftracker.leechers-paradise.org%3A6969&amp;tr=udp%3A%2F%2Fzer0day.ch%3A1337&amp;tr=udp%3A%2F%2Fopen.demonii.com%3A1337&amp;tr=udp%3A%2F%2Ftracker.coppersurfer.tk%3A6969&amp;tr=udp%3A%2F%2Fexodus.desync.com%3A6969","seeders":6,"leechers":1,"uploader":"nico1899","files":3,"time":1475899508,"description":"Funny Pics Compilation Part 7\r\n\r\nScreenshots\r\n    \nhttp://imgprix.com/video/funny-pics-compilation-part-7\r\n\r\nFormat                                   : MPEG-4\r\nFormat profile                           : Base Media / Version 2\r\nCodec ID                                 : mp42 (mp41/isom)\r\nFile size                                : 184 MiB\r\nDuration                                 : 11 min 53 s\r\nOverall bit rate                         : 2 166 kb/s\r\nEncoded date                             : UTC 2016-10-08 01:19:19\r\nTagged date                              : UTC 2016-10-08 01:19:19\r\n\r\nVideo\r\nID                                       : 1\r\nFormat                                   : AVC\r\nFormat/Info                              : Advanced Video Codec\r\nFormat profile                           :   \r\nFormat settings, CABAC                   : No\r\nFormat settings, ReFrames                : 2 frames\r\nFormat settings, GOP                     : M=1, N=30\r\nCodec ID                                 : avc1\r\nCodec ID/Info                            : Advanced Video Coding\r\nDuration                                 : 11 min 53 s\r\nSource duration                          : 11 min 53 s\r\nBit rate                                 : 1 970 kb/s\r\nWidth                                    : 1 920 pixels\r\nHeight                                   : 1 080 pixels\r\nDisplay aspect ratio                     : 16:9\r\nFrame rate mode                          : Constant\r\nFrame rate                               : 29.970 (29970/1000) FPS\r\nColor space                              : YUV\r\nChroma subsampling                       : 4:2:0\r\nBit depth                                : 8 bits\r\nScan type                                : Progressive\r\nBits/(Pixel*Frame)                       : 0.032\r\nStream size                              : 168 MiB (91%)\r\nSource stream size                       : 168 MiB (91%)\r\nEncoded date                             : UTC 2016-10-08 01:19:19\r\nTagged date                              : UTC 2016-10-08 01:19:19\r\nmdhd_Duration                            : 713580\r\n\r\nAudio\r\nID                                       : 2\r\nFormat                                   : AAC\r\nFormat/Info                              : Advanced Audio Codec\r\nFormat profile                           : LC\r\nCodec ID                                 : 40\r\nDuration                                 : 11 min 53 s\r\nBit rate mode                            : Constant\r\nBit rate                                 : 192 kb/s\r\nChannel(s)                               : 2 channels\r\nChannel positions                        : Front: L R\r\nSampling rate                            : 48.0 kHz\r\nFrame rate                               : 46.875 FPS (1024 spf)\r\nCompression mode                         : Lossy\r\nStream size                              : 16.4 MiB (9%)\r\nEncoded date                             : UTC 2016-10-08 01:19:19\r\nTagged date                              : UTC 2016-10-08 01:19:19\r\nmdhd_Duration                            : 713600","torrent":{"xt":"urn:btih:c4a1fd273c1bab83c1c4d84f0ff6475a03fb3bfc","amp;dn":"Funny+Pics+Compilation+Part+7","amp;tr":["udp%3A%2F%2Ftracker.leechers-paradise.org%3A6969","udp%3A%2F%2Fzer0day.ch%3A1337","udp%3A%2F%2Fopen.demonii.com%3A1337","udp%3A%2F%2Ftracker.coppersurfer.tk%3A6969","udp%3A%2F%2Fexodus.desync.com%3A6969"],"infoHash":"c4a1fd273c1bab83c1c4d84f0ff6475a03fb3bfc","infoHashBuffer":{"type":"Buffer","data":[196,161,253,39,60,27,171,131,193,196,216,79,15,246,71,90,3,251,59,252]},"announce":[],"urlList":[]}}